<svg xmlns="http://www.w3.org/2000/svg" viewBox="0 0 1200 1800" width="1200" height="1800">
  <title>Placeholder outfit frame — jacket-02.svg</title>
  
  <ellipse cx="600" cy="1752" rx="300" ry="20" fill="rgba(16,16,16,0.07)"/>

  <!-- trousers -->
  <path d="M430 990 H585 L578 1690 H405 Z" fill="#B4AEA3"/>
  <path d="M615 990 H770 L795 1690 H622 Z" fill="#B4AEA3"/>
  <path d="M556 990 H585 L578 1690 H551 Z" fill="#A39D92" opacity="0.6"/>
  <path d="M615 990 H644 L651 1690 H622 Z" fill="#A39D92" opacity="0.6"/>

  <!-- shoes -->
  <rect x="388" y="1688" width="204" height="56" rx="16" fill="#1A1A18"/>
  <rect x="608" y="1688" width="204" height="56" rx="16" fill="#1A1A18"/>

  <!-- arms and hands -->
  <rect x="300" y="590" width="72" height="400" rx="34" fill="#CDC6B9"/>
  <rect x="828" y="590" width="72" height="400" rx="34" fill="#CDC6B9"/>
  <rect x="296" y="968" width="78" height="66" rx="28" fill="#BEB6A7"/>
  <rect x="826" y="968" width="78" height="66" rx="28" fill="#BEB6A7"/>

  <!-- tee -->
  <path d="M405 430 H795 L800 1000 H400 Z" fill="#EDE9E1"/>
  <path d="M405 430 L292 462 L300 600 H372 L405 540 Z" fill="#EDE9E1"/>
  <path d="M795 430 L908 462 L900 600 H828 L795 540 Z" fill="#EDE9E1"/>
  <path d="M700 430 H795 L800 1000 H705 Z" fill="#DCD7CC" opacity="0.55"/>

  <!-- neck and head -->
  <rect x="566" y="330" width="68" height="120" fill="#CDC6B9"/>
  <ellipse cx="600" cy="440" rx="66" ry="20" fill="#DCD7CC"/>
  <ellipse cx="600" cy="232" rx="84" ry="104" fill="#3F3C37"/>
  <ellipse cx="600" cy="252" rx="78" ry="96" fill="#CDC6B9"/>
  
  
  <defs>
    <linearGradient id="shade" x1="0" x2="1" y1="0" y2="0">
      <stop offset="0" stop-color="#000" stop-opacity="0"/>
      <stop offset="0.6" stop-color="#000" stop-opacity="0"/>
      <stop offset="1" stop-color="#000" stop-opacity="0.12"/>
    </linearGradient>
  </defs>
  <g>
    <path d="M372 422 L282 470 L268 955 H372 L386 560 Z" fill="#26303F"/>
    <path d="M828 422 L918 470 L932 955 H828 L814 560 Z" fill="#26303F"/>
    <path d="M828 422 L918 470 L932 955 H828 L814 560 Z" fill="url(#shade)"/>
    <path d="M288 936 H372" stroke="#151B25" stroke-width="6" opacity="0.5"/>
    <path d="M828 936 H912" stroke="#151B25" stroke-width="6" opacity="0.5"/>
    <path d="M300 700 q 30 18 60 0" stroke="rgba(16,16,16,0.10)" stroke-width="6" fill="none"/>
    <path d="M840 720 q 30 18 60 0" stroke="rgba(16,16,16,0.10)" stroke-width="6" fill="none"/>
    <path d="M814 430 H600 L640 790 L612 1085 H812 Z" fill="#26303F"/><path d="M386 430 H600 L560 790 L632 1085 H388 Z" fill="#26303F"/>
    <path d="M700 430 H814 L812 1085 H700 Z" fill="url(#shade)"/>
    <path d="M602 432 L560 790 L524 764 L596 486 Z" fill="#1D2531"/><path d="M598 432 L640 790 L676 764 L604 486 Z" fill="#1D2531"/><path d="M548 428 H652 L640 404 H560 Z" fill="#151B25"/>
    
    
    <rect x="404" y="880" width="132" height="26" rx="4" fill="#1D2531"/><rect x="664" y="880" width="132" height="26" rx="4" fill="#1D2531"/><path d="M426 604 H506" stroke="#151B25" stroke-width="6" opacity="0.8"/>
    <circle cx="616" cy="812" r="10" fill="#0E1218"/><circle cx="616" cy="900" r="10" fill="#0E1218"/>
    <path d="M400 1081 H632" stroke="#151B25" stroke-width="4" opacity="0.35"/>
    <path d="M612 1081 H800" stroke="#151B25" stroke-width="4" opacity="0.35"/>
  </g>
</svg>